Coordinates
version=1
nRows=21
nColumns=22
inDegrees=yes

Units are S.I. units (second, meters, Newtons, ...)
If the header above contains a line with 'inDegrees', this indicates whether rotational values are in degrees (yes) or radians (no).

endheader
time	pelvis_tilt	pelvis_list	pelvis_rotation	pelvis_tx	pelvis_ty	pelvis_tz	hip_flexion_r	hip_adduction_r	hip_rotation_r	knee_angle_r	ankle_angle_r	subtalar_angle_r	hip_flexion_l	hip_adduction_l	hip_rotation_l	knee_angle_l	ankle_angle_l	subtalar_angle_l	lumbar_extension	lumbar_bending	lumbar_rotation
      2.69000000	      5.40521052	      5.21943052	    -30.06391326	     -0.16756757	      1.07311613	     -0.48826171	     12.97441615	     -6.24451497	      2.97740447	    -59.00087955	      4.48281436	      3.08652012	      5.90194949	      5.11078132	      0.55897840	    -14.79216159	      9.68458257	      5.76772212	     -6.25174200	     -8.41509055	     -4.03029150
      2.70000000	      5.45366363	      4.99091634	    -30.48897300	     -0.16053034	      1.07407393	     -0.48575879	     13.69506190	     -6.11550507	      2.30422605	    -58.70988048	      5.38994248	      2.44714931	      5.11603705	      5.00836216	      0.19512068	    -14.45229268	      9.92481894	      5.60593241	     -6.48017956	     -8.18774878	     -4.32753306
      2.71000000	      5.46809189	      4.75428796	    -30.92142084	     -0.15370223	      1.07489947	     -0.48310066	     14.40055937	     -5.91652443	      1.66842914	    -58.26145829	      6.18026127	      1.89955823	      4.36964875	      4.87764298	     -0.15577098	    -14.12586894	     10.12724514	      5.44028412	     -6.68633134	     -7.95342278	     -4.59701821
      2.72000000	      5.44205779	      4.51510068	    -31.36286882	     -0.14707901	      1.07554172	     -0.48031601	     15.10687372	     -5.65945991	      1.06353662	    -57.67489557	      6.87130593	      1.56868973	      3.70271709	      4.71764352	     -0.54667188	    -13.87335516	     10.41143804	      5.27841631	     -6.86251126	     -7.71100741	     -4.84221998
      2.73000000	      5.40418732	      4.27571121	    -31.81359370	     -0.14061442	      1.07606170	     -0.47739491	     15.78016206	     -5.36980478	      0.48423926	    -56.94932297	      7.50635186	      1.24410883	      3.05700728	      4.55172039	     -0.91798027	    -13.63438149	     10.65550923	      5.08491451	     -7.03407235	     -7.47492003	     -5.09659202
      2.74000000	      5.33903535	      4.06215515	    -32.26619863	     -0.13426040	      1.07639693	     -0.47437190	     16.45594659	     -5.08679908	     -0.10441652	    -56.10911042	      8.10916325	      1.04440087	      2.48224273	      4.39563407	     -1.29482344	    -13.45225336	     10.91091242	      4.89300776	     -7.16488881	     -7.25924439	     -5.32575023
      2.75000000	      5.26872247	      3.84291092	    -32.72394780	     -0.12800353	      1.07661455	     -0.47122800	     17.08862585	     -4.79001344	     -0.69365942	    -55.15143160	      8.66878586	      0.84815414	      1.92543625	      4.23335212	     -1.67414822	    -13.30022059	     11.16636901	      4.64469983	     -7.29657526	     -7.04074372	     -5.56988611
      2.76000000	      5.18898295	      3.64879899	    -33.18219538	     -0.12179170	      1.07667615	     -0.46799397	     17.70321673	     -4.52421689	     -1.30611049	    -54.09555962	      9.21985928	      0.70399781	      1.41304584	      4.09248887	     -2.05731366	    -13.19153288	     11.43036778	      4.38167611	     -7.39975546	     -6.84351574	     -5.80573367
      2.77000000	      5.10945805	      3.46635103	    -33.64145956	     -0.11560704	      1.07661896	     -0.46464086	     18.27950907	     -4.28263582	     -1.94534870	    -52.94837880	      9.75077185	      0.56308104	      0.91799045	      3.96549374	     -2.44370452	    -13.10965926	     11.68989114	      4.08309656	     -7.48700708	     -6.66032188	     -6.04470407
      2.78000000	      5.03212467	      3.29841197	    -34.09705295	     -0.10942356	      1.07644864	     -0.46120657	     18.81796985	     -4.07768258	     -2.62432253	    -51.71765259	     10.26378957	      0.41348172	      0.43470990	      3.85743251	     -2.83653507	    -13.04441434	     11.95145485	      3.76260516	     -7.56070692	     -6.48623497	     -6.27602297
      2.79000000	      4.97608917	      3.14040989	    -34.55484321	     -0.10322898	      1.07620249	     -0.45763767	     19.29834129	     -3.91453052	     -3.34617183	    -50.41534136	     10.77110630	      0.20240204	     -0.06831498	      3.77467546	     -3.22324397	    -12.98004186	     12.18519611	      3.39937778	     -7.63098362	     -6.33608329	     -6.51287241
      2.80000000	      4.89476897	      3.00147199	    -35.00539714	     -0.09705101	      1.07581109	     -0.45399640	     19.77603281	     -3.77592307	     -4.12006299	    -49.05575653	     11.23673825	      0.04721059	     -0.52629406	      3.69309492	     -3.61738829	    -12.94768150	     12.49490251	      3.13544454	     -7.65738503	     -6.18302343	     -6.71319441
      2.81000000	      4.82962340	      2.86771279	    -35.44467605	     -0.09088144	      1.07536934	     -0.45027640	     20.19585871	     -3.66959342	     -4.94386837	    -47.62858078	     11.67513827	     -0.17405606	     -1.00853872	      3.62768372	     -3.99305456	    -12.89888381	     12.79428390	      2.86612418	     -7.69029198	     -6.03740245	     -6.92434278
      2.82000000	      4.78761006	      2.74229666	    -35.87262130	     -0.08473288	      1.07488417	     -0.44645736	     20.55750587	     -3.59997114	     -5.82501045	    -46.14309887	     12.08696047	     -0.48247935	     -1.52258400	      3.58363567	     -4.34700505	    -12.82674503	     13.08048319	      2.60505876	     -7.73207057	     -5.91380563	     -7.13323085
      2.83000000	      4.72142752	      2.62544777	    -36.27594839	     -0.07864981	      1.07431340	     -0.44258435	     20.90496787	     -3.53536211	     -6.77303300	    -44.60125776	     12.43151941	     -0.74621878	     -2.00311278	      3.52732593	     -4.68601852	    -12.76949807	     13.39555891	      2.41838529	     -7.74959518	     -5.77787292	     -7.33183822
      2.84000000	      4.62911429	      2.52326494	    -36.65423997	     -0.07263698	      1.07364457	     -0.43865090	     21.24721910	     -3.47293223	     -7.77875332	    -43.01055788	     12.68698128	     -0.95077141	     -2.44572222	      3.46227291	     -4.99696782	    -12.72576543	     13.75780516	      2.27687910	     -7.73771367	     -5.63779633	     -7.50764448
      2.85000000	      4.55715893	      2.41012280	    -37.00979410	     -0.06667006	      1.07297341	     -0.43462724	     21.51736655	     -3.41134681	     -8.83408341	    -41.35975993	     12.87196127	     -1.22374474	     -2.92335191	      3.39723156	     -5.28707526	    -12.66431592	     14.09732649	      2.14895612	     -7.75699647	     -5.49778971	     -7.68793786
      2.86000000	      4.48583047	      2.29956495	    -37.35129414	     -0.06076678	      1.07225343	     -0.43049153	     21.74857089	     -3.33939365	     -9.91669991	    -39.66021416	     12.97754645	     -1.49913851	     -3.40109220	      3.32917704	     -5.57495309	    -12.60370698	     14.44052952	      2.04800476	     -7.77843727	     -5.36259553	     -7.86083807
      2.87000000	      4.36698721	      2.19806483	    -37.66699914	     -0.05491920	      1.07143076	     -0.42627387	     21.98949003	     -3.23276610	    -11.03346253	    -37.91843019	     12.93966886	     -1.68095660	     -3.82407916	      3.23279375	     -5.83758941	    -12.56293494	     14.81799661	      1.96927125	     -7.75603756	     -5.20129079	     -8.00715416
      2.88000000	      4.25244629	      2.08393601	    -37.96426573	     -0.04910557	      1.07058172	     -0.42193461	     22.17537676	     -3.09534599	    -12.15889161	    -36.13001800	     12.83639042	     -1.87282982	     -4.25968431	      3.12163477	     -6.11190763	    -12.52663663	     15.19008871	      1.90685286	     -7.74948883	     -5.02871518	     -8.15755519
      2.89000000	      4.07296507	      2.00266915	    -38.24869690	     -0.04336913	      1.06957417	     -0.41749295	     22.41087436	     -2.90802829	    -13.24019989	    -34.31702270	     12.63962018	     -1.95749300	     -4.59960749	      2.98576240	     -6.40913850	    -12.52996789	     15.58455634	      1.84308960	     -7.66607194	     -4.83871581	     -8.30225276
